<svg xmlns="http://www.w3.org/2000/svg" xmlns:xlink="http://www.w3.org/1999/xlink" version="1.1" width="1080" height="1080" viewBox="0 0 1080 1080" xml:space="preserve">
<desc>Created with Fabric.js 3.5.0</desc>
<defs>
</defs>
<rect x="0" y="0" width="100%" height="100%" fill="rgba(255,255,255,0)"/>
<g transform="matrix(1.0468 0 0 1.0468 540 541.8032)" id="795943">
<g style="">
		<g transform="matrix(3.0917 0 0 3.0917 -0.003 179.4873)" id="XMLID_1403_">
<path style="stroke: none; stroke-width: 1; stroke-dasharray: none; stroke-linecap: butt; stroke-dashoffset: 0; stroke-linejoin: miter; stroke-miterlimit: 4; is-custom-font: none; font-file-url: none; fill: rgb(239,209,171); fill-rule: nonzero; opacity: 1;" transform=" translate(-166.908, -224.962)" d="M 250.097 238.262 c -18.667 -6.681 -51.458 -11.736 -51.458 -81.376 h -29.23 h -5.002 h -29.23 c 0 69.64 -32.791 74.695 -51.458 81.376 c 0 47.368 68.832 48.824 80.688 53.239 v 1.537 c 0 0 0.922 -0.188 2.501 -0.68 c 1.579 0.492 2.501 0.68 2.501 0.68 v -1.537 C 181.265 287.086 250.097 285.63 250.097 238.262 z" stroke-linecap="round"/>
</g>
		<g transform="matrix(3.0917 0 0 3.0917 128.0829 179.4873)" id="XMLID_1404_">
<path style="stroke: none; stroke-width: 1; stroke-dasharray: none; stroke-linecap: butt; stroke-dashoffset: 0; stroke-linejoin: miter; stroke-miterlimit: 4; is-custom-font: none; font-file-url: none; fill: rgb(224,185,147); fill-rule: nonzero; opacity: 1;" transform=" translate(-208.336, -224.962)" d="M 198.639 156.886 h -29.23 h -2.834 v 135.573 c 0.11 -0.033 0.216 -0.064 0.333 -0.101 c 1.579 0.492 2.501 0.68 2.501 0.68 V 291.5 c 11.856 -4.414 80.688 -5.871 80.688 -53.238 C 231.43 231.581 198.639 226.526 198.639 156.886 z" stroke-linecap="round"/>
</g>
		<g transform="matrix(1.0954 -2.891 2.891 1.0954 190.5327 -166.5847)" id="XMLID_65_">
<ellipse style="stroke: none; stroke-width: 1; stroke-dasharray: none; stroke-linecap: butt; stroke-dashoffset: 0; stroke-linejoin: miter; stroke-miterlimit: 4; is-custom-font: none; font-file-url: none; fill: rgb(220,190,158); fill-rule: nonzero; opacity: 1;" cx="0" cy="0" rx="17.187" ry="10.048"/>
</g>
		<g transform="matrix(1.0954 2.891 -2.891 1.0954 -193.9068 -166.5912)" id="XMLID_64_">
<ellipse style="stroke: none; stroke-width: 1; stroke-dasharray: none; stroke-linecap: butt; stroke-dashoffset: 0; stroke-linejoin: miter; stroke-miterlimit: 4; is-custom-font: none; font-file-url: none; fill: rgb(228,200,171); fill-rule: nonzero; opacity: 1;" cx="0" cy="0" rx="17.187" ry="10.048"/>
</g>
		<g transform="matrix(3.0917 0 0 3.0917 -0.0021 -211.3292)" id="XMLID_1408_">
<path style="stroke: none; stroke-width: 1; stroke-dasharray: none; stroke-linecap: butt; stroke-dashoffset: 0; stroke-linejoin: miter; stroke-miterlimit: 4; is-custom-font: none; font-file-url: none; fill: rgb(228,200,171); fill-rule: nonzero; opacity: 1;" transform=" translate(-166.9081, -98.5553)" d="M 166.91 180.733 c -27.454 0 -48.409 -23.119 -57.799 -40.456 s -15.888 -79.445 4.34 -106.897 c 19.808 -26.883 53.459 -13.838 53.459 -13.838 s 33.649 -13.045 53.458 13.838 c 20.226 27.452 13.726 89.56 4.335 106.897 C 215.311 157.614 194.359 180.733 166.91 180.733 z" stroke-linecap="round"/>
</g>
		<g transform="matrix(3.0917 0 0 3.0917 102.6693 -211.3268)" id="XMLID_1409_">
<path style="stroke: none; stroke-width: 1; stroke-dasharray: none; stroke-linecap: butt; stroke-dashoffset: 0; stroke-linejoin: miter; stroke-miterlimit: 4; is-custom-font: none; font-file-url: none; fill: rgb(220,190,158); fill-rule: nonzero; opacity: 1;" transform=" translate(-200.116, -98.5561)" d="M 220.368 33.381 c -19.81 -26.884 -53.458 -13.838 -53.458 -13.838 s -0.118 -0.045 -0.335 -0.123 v 161.305 c 0.112 0.001 0.222 0.009 0.335 0.009 c 27.449 0 48.401 -23.119 57.794 -40.456 C 234.094 122.941 240.595 60.833 220.368 33.381 z" stroke-linecap="round"/>
</g>
		<g transform="matrix(3.0917 0 0 3.0917 -0.0043 329.2051)" id="XMLID_1414_">
<path style="stroke: none; stroke-width: 1; stroke-dasharray: none; stroke-linecap: butt; stroke-dashoffset: 0; stroke-linejoin: miter; stroke-miterlimit: 4; is-custom-font: none; font-file-url: none; fill: rgb(84,84,101); fill-rule: nonzero; opacity: 1;" transform=" translate(-166.908, -273.3871)" d="M 286.89 293.134 v 40.681 H 46.926 v -40.681 c 0 -30.431 17.377 -56.963 40.605 -70.913 c 6.043 -3.641 19.69 -7.43 26.844 -9.196 c 5.953 -1.488 53.438 22.729 53.438 22.729 s 48.674 -23.218 54.627 -21.729 c 7.154 1.766 17.802 4.554 23.844 8.196 C 269.513 236.171 286.89 262.702 286.89 293.134 z" stroke-linecap="round"/>
</g>
		<g transform="matrix(3.0917 0 0 3.0917 184.9594 330.7436)" id="XMLID_1417_">
<path style="stroke: none; stroke-width: 1; stroke-dasharray: none; stroke-linecap: butt; stroke-dashoffset: 0; stroke-linejoin: miter; stroke-miterlimit: 4; is-custom-font: none; font-file-url: none; fill: rgb(73,72,87); fill-rule: nonzero; opacity: 1;" transform=" translate(-226.7325, -273.8847)" d="M 246.285 222.22 c -6.043 -3.641 -16.69 -6.429 -23.844 -8.196 c -5.953 -1.488 -54.627 21.729 -54.627 21.729 s -0.442 -0.225 -1.239 -0.627 v 98.688 H 286.89 v -40.681 C 286.89 262.703 269.513 236.171 246.285 222.22 z" stroke-linecap="round"/>
</g>
		<g transform="matrix(3.0917 0 0 3.0917 -0.0008 361.0161)" id="XMLID_1419_">
<polygon style="stroke: none; stroke-width: 1; stroke-dasharray: none; stroke-linecap: butt; stroke-dashoffset: 0; stroke-linejoin: miter; stroke-miterlimit: 4; is-custom-font: none; font-file-url: none; fill: rgb(184,31,46); fill-rule: nonzero; opacity: 1;" points="21.667,-43.304 0,-50.138 -21.667,-43.304 -7.353,-32.312 -16.333,50.138 16.333,50.138 7.353,-32.312 "/>
</g>
		<g transform="matrix(3.0917 0 0 3.0917 32.9791 361.0161)" id="XMLID_1420_">
<polygon style="stroke: none; stroke-width: 1; stroke-dasharray: none; stroke-linecap: butt; stroke-dashoffset: 0; stroke-linejoin: miter; stroke-miterlimit: 4; is-custom-font: none; font-file-url: none; fill: rgb(147,0,15); fill-rule: nonzero; opacity: 1;" points="11,-43.304 -10.667,-50.138 -11,-50.033 -11,50.138 5.666,50.138 -3.314,-32.312 "/>
</g>
		<g transform="matrix(3.0917 0 0 3.0917 -0.0018 187.9289)" id="XMLID_1422_">
<path style="stroke: none; stroke-width: 1; stroke-dasharray: none; stroke-linecap: butt; stroke-dashoffset: 0; stroke-linejoin: miter; stroke-miterlimit: 4; is-custom-font: none; font-file-url: none; fill: rgb(255,255,255); fill-rule: nonzero; opacity: 1;" transform=" translate(-166.908, -227.6918)" d="M 215.075 209.247 l -48.167 23.441 l -48.167 -23.441 c -11.5 5.5 10.396 38.436 14.833 36.833 c 10.963 -3.96 33.334 -10.329 33.334 -10.329 s 22.371 6.369 33.334 10.329 C 204.679 247.683 226.575 214.747 215.075 209.247 z" stroke-linecap="round"/>
</g>
		<g transform="matrix(3.0917 0 0 3.0917 79.046 187.9304)" id="XMLID_1423_">
<path style="stroke: none; stroke-width: 1; stroke-dasharray: none; stroke-linecap: butt; stroke-dashoffset: 0; stroke-linejoin: miter; stroke-miterlimit: 4; is-custom-font: none; font-file-url: none; fill: rgb(222,221,224); fill-rule: nonzero; opacity: 1;" transform=" translate(-192.4752, -227.6923)" d="M 215.075 209.247 l -48.167 23.441 l -0.333 -0.162 v 3.321 c 0.211 -0.061 0.333 -0.095 0.333 -0.095 s 22.371 6.369 33.334 10.329 C 204.679 247.683 226.575 214.747 215.075 209.247 z" stroke-linecap="round"/>
</g>
		<g transform="matrix(3.0917 0 0 3.0917 0.0009 11.1242)" id="XMLID_1427_">
<path style="stroke: none; stroke-width: 1; stroke-dasharray: none; stroke-linecap: butt; stroke-dashoffset: 0; stroke-linejoin: miter; stroke-miterlimit: 4; is-custom-font: none; font-file-url: none; fill: rgb(71,31,11); fill-rule: nonzero; opacity: 1;" transform=" translate(-166.9085, -170.5055)" d="M 183.075 160.793 l -16.452 -3.907 l -15.881 3.907 l 2.282 20.541 c 4.299 1.752 8.946 2.791 13.886 2.791 c 4.938 0 9.585 -1.039 13.883 -2.791 L 183.075 160.793 z" stroke-linecap="round"/>
</g>
		<g transform="matrix(3.0917 0 0 3.0917 24.4754 11.1257)" id="XMLID_1428_">
<path style="stroke: none; stroke-width: 1; stroke-dasharray: none; stroke-linecap: butt; stroke-dashoffset: 0; stroke-linejoin: miter; stroke-miterlimit: 4; is-custom-font: none; font-file-url: none; fill: rgb(49,20,5); fill-rule: nonzero; opacity: 1;" transform=" translate(-174.8245, -170.506)" d="M 166.623 156.886 l -0.048 0.012 v 27.219 c 0.112 0.001 0.222 0.009 0.334 0.009 c 4.938 0 9.585 -1.039 13.883 -2.791 l 2.282 -20.542 L 166.623 156.886 z" stroke-linecap="round"/>
</g>
		<g transform="matrix(3.0917 0 0 3.0917 -2.4515 -330.4256)" id="XMLID_1433_">
<path style="stroke: none; stroke-width: 1; stroke-dasharray: none; stroke-linecap: butt; stroke-dashoffset: 0; stroke-linejoin: miter; stroke-miterlimit: 4; is-custom-font: none; font-file-url: none; fill: rgb(71,31,11); fill-rule: nonzero; opacity: 1;" transform=" translate(-166.1159, -60.0342)" d="M 223.571 25.321 c -2.159 0.08 -12.282 -31.303 -39.282 -24.303 c -18.537 4.806 -20.877 7.419 -28.12 9.463 c -29.41 -9.014 -57.539 14.472 -56.495 36.488 c 1.759 37.07 -4.778 36.505 -0.295 49.454 s 8.466 23.407 8.466 23.407 s 0.996 3.565 2.988 -16.854 s -4.705 -31.379 11.137 -31.379 c 52.452 0 -19.698 20.372 13.952 20.372 c 33.391 0 59.203 -27.381 74.92 -29.372 c 15.716 -1.992 9.145 19.96 11.137 40.379 s 2.988 16.854 2.988 16.854 s 8.92 -9.712 8.466 -23.407 C 232.923 80.969 239.803 24.719 223.571 25.321 z" stroke-linecap="round"/>
</g>
		<g transform="matrix(3.0917 0 0 3.0917 103.9024 -330.4241)" id="XMLID_1434_">
<path style="stroke: none; stroke-width: 1; stroke-dasharray: none; stroke-linecap: butt; stroke-dashoffset: 0; stroke-linejoin: miter; stroke-miterlimit: 4; is-custom-font: none; font-file-url: none; fill: rgb(49,20,5); fill-rule: nonzero; opacity: 1;" transform=" translate(-200.5149, -60.0347)" d="M 223.571 25.322 c -2.159 0.08 -12.282 -31.303 -39.282 -24.303 c -8.808 2.284 -13.956 4.071 -17.714 5.539 V 84.84 c 18.759 -8.259 33.769 -20.913 44.268 -22.243 c 15.716 -1.992 9.145 19.96 11.137 40.379 c 1.992 20.419 2.988 16.854 2.988 16.854 s 8.92 -9.712 8.466 -23.407 C 232.923 80.969 239.803 24.719 223.571 25.322 z" stroke-linecap="round"/>
</g>
		<g transform="matrix(1.0954 -2.891 2.891 1.0954 190.5327 -166.5847)" id="XMLID_33_">
<ellipse style="stroke: none; stroke-width: 1; stroke-dasharray: none; stroke-linecap: butt; stroke-dashoffset: 0; stroke-linejoin: miter; stroke-miterlimit: 4; is-custom-font: none; font-file-url: none; fill: rgb(220,190,158); fill-rule: nonzero; opacity: 1;" cx="0" cy="0" rx="17.187" ry="10.048"/>
</g>
		<g transform="matrix(1.0954 2.891 -2.891 1.0954 -193.9068 -166.5912)" id="XMLID_32_">
<ellipse style="stroke: none; stroke-width: 1; stroke-dasharray: none; stroke-linecap: butt; stroke-dashoffset: 0; stroke-linejoin: miter; stroke-miterlimit: 4; is-custom-font: none; font-file-url: none; fill: rgb(228,200,171); fill-rule: nonzero; opacity: 1;" cx="0" cy="0" rx="17.187" ry="10.048"/>
</g>
</g>
</g>
</svg>